<svg width="20" height="21" viewBox="0 0 20 21" fill="none" xmlns="http://www.w3.org/2000/svg">
<path d="M3.5 10.2197V11.4697C3.5 11.9072 3.15625 12.2197 2.75 12.2197C2.3125 12.2197 2 11.9072 2 11.4697V10.2197C2 5.81348 5.5625 2.21973 10 2.21973C14.4062 2.21973 18 5.81348 18 10.2197V14.751C18 16.251 16.75 17.501 15.25 17.501L11.7812 17.4697C11.5312 17.9385 11.0312 18.2197 10.5 18.2197H9.5C8.65625 18.2197 8 17.5635 8 16.7197C8 15.9072 8.65625 15.2197 9.5 15.2197H10.5C11.0312 15.2197 11.5312 15.5322 11.7812 15.9697L15.25 16.001C15.9375 16.001 16.5 15.4385 16.5 14.751V10.2197C16.5 6.65723 13.5625 3.71973 10 3.71973C6.40625 3.71973 3.5 6.65723 3.5 10.2197ZM7 9.21973C6.4375 9.21973 6 9.68848 6 10.2197V11.7197C6 12.2822 6.4375 12.7197 7 12.7197V9.21973ZM4.5 10.2197C4.5 8.84473 5.59375 7.71973 7 7.71973H7.5C8.03125 7.71973 8.5 8.18848 8.5 8.71973V13.2197C8.5 13.7822 8.03125 14.2197 7.5 14.2197H7C5.59375 14.2197 4.5 13.126 4.5 11.7197V10.2197ZM13 9.21973V12.7197C13.5312 12.7197 14 12.2822 14 11.7197V10.2197C14 9.68848 13.5312 9.21973 13 9.21973ZM15.5 10.2197V11.7197C15.5 13.126 14.375 14.2197 13 14.2197H12.5C11.9375 14.2197 11.5 13.7822 11.5 13.2197V8.71973C11.5 8.18848 11.9375 7.71973 12.5 7.71973H13C14.375 7.71973 15.5 8.84473 15.5 10.2197Z" fill="white"/>
</svg>
