<svg width="20" height="21" viewBox="0 0 20 21" fill="none" xmlns="http://www.w3.org/2000/svg">
<path d="M16.5 9.21973C16.5 8.96973 16.25 8.71973 16 8.71973H4C3.71875 8.71973 3.5 8.96973 3.5 9.21973V16.2197C3.5 16.501 3.71875 16.7197 4 16.7197H16C16.25 16.7197 16.5 16.501 16.5 16.2197V9.21973ZM16 7.21973C17.0938 7.21973 18 8.12598 18 9.21973V16.2197C18 17.3447 17.0938 18.2197 16 18.2197H4C2.875 18.2197 2 17.3447 2 16.2197V9.21973C2 8.12598 2.875 7.21973 4 7.21973H16ZM15.75 4.71973C16.1562 4.71973 16.5 5.06348 16.5 5.46973C16.5 5.90723 16.1562 6.21973 15.75 6.21973H4.25C3.8125 6.21973 3.5 5.90723 3.5 5.46973C3.5 5.06348 3.8125 4.71973 4.25 4.71973H15.75ZM14.25 2.21973C14.6562 2.21973 15 2.56348 15 2.96973C15 3.40723 14.6562 3.71973 14.25 3.71973H5.75C5.3125 3.71973 5 3.40723 5 2.96973C5 2.56348 5.3125 2.21973 5.75 2.21973H14.25Z" fill="white"/>
</svg>
