<svg width="20" height="21" viewBox="0 0 20 21" fill="none" xmlns="http://www.w3.org/2000/svg">
<path d="M10.4688 2.40723L18.7188 9.40723C19.0312 9.68848 19.0625 10.1572 18.8125 10.4697C18.5312 10.7822 18.0625 10.8135 17.75 10.5635L17 9.90723V15.7197C17 17.126 15.875 18.2197 14.5 18.2197H5.5C4.09375 18.2197 3 17.126 3 15.7197V9.90723L2.21875 10.5635C1.90625 10.8135 1.4375 10.7822 1.15625 10.4697C0.90625 10.1572 0.9375 9.68848 1.25 9.40723L9.5 2.40723C9.78125 2.18848 10.1875 2.18848 10.4688 2.40723ZM4.5 15.7197C4.5 16.2822 4.9375 16.7197 5.5 16.7197H7V11.9697C7 11.2822 7.53125 10.7197 8.25 10.7197H11.75C12.4375 10.7197 13 11.2822 13 11.9697V16.7197H14.5C15.0312 16.7197 15.5 16.2822 15.5 15.7197V8.62598L10 3.96973L4.5 8.62598V15.7197ZM8.5 16.7197H11.5V12.2197H8.5V16.7197Z" fill="white"/>
</svg>
