<svg width="20" height="21" viewBox="0 0 20 21" fill="none" xmlns="http://www.w3.org/2000/svg">
<path d="M5.84375 14.4697C6.25 14.1572 6.78125 14.0947 7.25 14.251C8.0625 14.5635 9 14.7197 10 14.7197C13.875 14.7197 16.5 12.2197 16.5 9.71973C16.5 7.25098 13.875 4.71973 10 4.71973C6.09375 4.71973 3.5 7.25098 3.5 9.71973C3.5 10.7197 3.875 11.6885 4.59375 12.5322C4.875 12.8135 5 13.2197 4.96875 13.626C4.9375 14.1885 4.78125 14.7197 4.625 15.1885C5.15625 14.9385 5.59375 14.6572 5.84375 14.4697ZM2.65625 15.7197C2.71875 15.6572 2.75 15.5635 2.8125 15.4697C3.125 14.9697 3.40625 14.2822 3.46875 13.501C2.53125 12.4385 2 11.1572 2 9.71973C2 6.15723 5.5625 3.21973 10 3.21973C14.4062 3.21973 18 6.15723 18 9.71973C18 13.3135 14.4062 16.2197 10 16.2197C8.8125 16.2197 7.71875 16.0322 6.71875 15.6885C6.375 15.9385 5.75 16.3135 5.03125 16.626C4.5625 16.8447 4.03125 17.0322 3.46875 17.126C3.4375 17.126 3.40625 17.1572 3.40625 17.1572C3.25 17.1885 3.125 17.1885 2.96875 17.2197C2.8125 17.2197 2.65625 17.251 2.46875 17.251C2.28125 17.251 2.09375 17.126 2.03125 16.9385C1.9375 16.751 2 16.5322 2.125 16.376C2.25 16.251 2.375 16.126 2.46875 15.9697C2.53125 15.876 2.59375 15.8135 2.625 15.751V15.7197H2.65625Z" fill="white"/>
</svg>
