<svg width="20" height="21" viewBox="0 0 20 21" fill="none" xmlns="http://www.w3.org/2000/svg">
<path d="M3.25 3.71973H4.75C5.15625 3.71973 5.5 4.06348 5.5 4.46973V5.96973C5.5 6.40723 5.15625 6.71973 4.75 6.71973H3.25C2.8125 6.71973 2.5 6.40723 2.5 5.96973V4.46973C2.5 4.06348 2.8125 3.71973 3.25 3.71973ZM7.75 4.46973H17.25C17.6562 4.46973 18 4.81348 18 5.21973C18 5.65723 17.6562 5.96973 17.25 5.96973H7.75C7.3125 5.96973 7 5.65723 7 5.21973C7 4.81348 7.3125 4.46973 7.75 4.46973ZM7.75 9.46973H17.25C17.6562 9.46973 18 9.81348 18 10.2197C18 10.6572 17.6562 10.9697 17.25 10.9697H7.75C7.3125 10.9697 7 10.6572 7 10.2197C7 9.81348 7.3125 9.46973 7.75 9.46973ZM7.75 14.4697H17.25C17.6562 14.4697 18 14.8135 18 15.2197C18 15.6572 17.6562 15.9697 17.25 15.9697H7.75C7.3125 15.9697 7 15.6572 7 15.2197C7 14.8135 7.3125 14.4697 7.75 14.4697ZM2.5 9.46973C2.5 9.06348 2.8125 8.71973 3.25 8.71973H4.75C5.15625 8.71973 5.5 9.06348 5.5 9.46973V10.9697C5.5 11.4072 5.15625 11.7197 4.75 11.7197H3.25C2.8125 11.7197 2.5 11.4072 2.5 10.9697V9.46973ZM3.25 13.7197H4.75C5.15625 13.7197 5.5 14.0635 5.5 14.4697V15.9697C5.5 16.4072 5.15625 16.7197 4.75 16.7197H3.25C2.8125 16.7197 2.5 16.4072 2.5 15.9697V14.4697C2.5 14.0635 2.8125 13.7197 3.25 13.7197Z" fill="white"/>
</svg>
