<svg width="12" height="12" viewBox="0 0 12 12" fill="none" xmlns="http://www.w3.org/2000/svg">
<path d="M8.25 3.44531V4.6875C8.25 5.01562 7.99219 5.25 7.6875 5.25H4.875V6.75H7.6875C7.99219 6.75 8.25 7.00781 8.25 7.3125V8.57812L10.8281 6L8.25 3.44531ZM12 6C12 6.28125 11.8828 6.53906 11.6953 6.72656L8.97656 9.44531C8.76562 9.65625 8.48438 9.75 8.20312 9.75C7.59375 9.75 7.125 9.28125 7.125 8.67188V7.875H4.875C4.24219 7.875 3.75 7.38281 3.75 6.75V5.25C3.75 4.64062 4.24219 4.125 4.875 4.125H7.125V3.35156C7.125 2.74219 7.59375 2.25 8.20312 2.25C8.48438 2.25 8.76562 2.36719 8.97656 2.57812L11.6953 5.29688C11.8828 5.48438 12 5.74219 12 6ZM3.9375 1.875H2.0625C1.52344 1.875 1.125 2.29688 1.125 2.8125V9.1875C1.125 9.72656 1.52344 10.125 2.0625 10.125H3.9375C4.24219 10.125 4.5 10.3828 4.5 10.6875C4.5 11.0156 4.24219 11.25 3.9375 11.25H2.0625C0.914062 11.25 0 10.3359 0 9.1875V2.8125C0 1.6875 0.914062 0.75 2.0625 0.75H3.9375C4.24219 0.75 4.5 1.00781 4.5 1.3125C4.5 1.64062 4.24219 1.875 3.9375 1.875Z" fill="white"/>
</svg>
