<svg width="20" height="21" viewBox="0 0 20 21" fill="none" xmlns="http://www.w3.org/2000/svg">
<path d="M14 3.71973H5C4.71875 3.71973 4.5 3.96973 4.5 4.21973V16.2197C4.5 16.501 4.71875 16.7197 5 16.7197H14C14.25 16.7197 14.5 16.501 14.5 16.2197V4.21973C14.5 3.96973 14.25 3.71973 14 3.71973ZM5 2.21973H14C15.0938 2.21973 16 3.12598 16 4.21973V16.2197C16 17.3447 15.0938 18.2197 14 18.2197H5C3.875 18.2197 3 17.3447 3 16.2197V4.21973C3 3.12598 3.875 2.21973 5 2.21973ZM9.5 10.2197C8.78125 10.2197 8.125 9.84473 7.75 9.21973C7.40625 8.62598 7.40625 7.84473 7.75 7.21973C8.125 6.62598 8.78125 6.21973 9.5 6.21973C10.1875 6.21973 10.8438 6.62598 11.2188 7.21973C11.5625 7.84473 11.5625 8.62598 11.2188 9.21973C10.8438 9.84473 10.1875 10.2197 9.5 10.2197ZM8.5 11.2197H10.5C11.875 11.2197 13 12.3447 13 13.7197C13 14.001 12.75 14.2197 12.5 14.2197H6.5C6.21875 14.2197 6 14.001 6 13.7197C6 12.3447 7.09375 11.2197 8.5 11.2197ZM18 4.71973V6.71973C18 7.00098 17.75 7.21973 17.5 7.21973C17.2188 7.21973 17 7.00098 17 6.71973V4.71973C17 4.46973 17.2188 4.21973 17.5 4.21973C17.75 4.21973 18 4.46973 18 4.71973ZM17.5 8.21973C17.75 8.21973 18 8.46973 18 8.71973V10.7197C18 11.001 17.75 11.2197 17.5 11.2197C17.2188 11.2197 17 11.001 17 10.7197V8.71973C17 8.46973 17.2188 8.21973 17.5 8.21973ZM18 12.7197V14.7197C18 15.001 17.75 15.2197 17.5 15.2197C17.2188 15.2197 17 15.001 17 14.7197V12.7197C17 12.4697 17.2188 12.2197 17.5 12.2197C17.75 12.2197 18 12.4697 18 12.7197Z" fill="white"/>
</svg>
