<svg width="20" height="21" viewBox="0 0 20 21" fill="none" xmlns="http://www.w3.org/2000/svg">
<path d="M10 2.21973C10.5312 2.21973 11.0312 2.28223 11.5312 2.37598C11.7812 2.43848 12.2188 2.56348 12.4688 3.00098C12.5312 3.12598 12.5625 3.25098 12.5938 3.37598L12.9062 4.59473C12.9375 4.75098 13.25 4.93848 13.4375 4.87598L14.625 4.53223C14.75 4.50098 14.875 4.46973 15 4.46973C15.5 4.46973 15.8438 4.78223 16 4.96973C16.6875 5.75098 17.2188 6.65723 17.5625 7.65723C17.6562 7.90723 17.75 8.34473 17.4688 8.75098C17.4062 8.87598 17.3125 8.96973 17.2188 9.06348L16.3438 9.93848C16.1875 10.0635 16.1875 10.4072 16.3438 10.5322L17.2188 11.4072C17.3125 11.501 17.4062 11.5947 17.4688 11.7197C17.7188 12.126 17.625 12.5635 17.5625 12.8135C17.2188 13.8135 16.6875 14.7197 16 15.501C15.8438 15.6885 15.5 16.001 15 16.001C14.875 16.001 14.75 15.9697 14.625 15.9385L13.4375 15.5635C13.25 15.5322 12.9375 15.6885 12.9062 15.876L12.5938 17.0947C12.5625 17.2197 12.5312 17.3447 12.4688 17.4697C12.2188 17.9072 11.7812 18.0322 11.5312 18.0947C11.0312 18.1885 10.5312 18.2197 10 18.2197C9.46875 18.2197 8.9375 18.1885 8.4375 18.0947C8.1875 18.0322 7.75 17.9072 7.5 17.4697C7.4375 17.3447 7.40625 17.2197 7.375 17.0947L7.0625 15.876C7.03125 15.6885 6.71875 15.5322 6.5625 15.5635L5.375 15.9385C5.25 15.9697 5.09375 15.9697 4.96875 16.001C4.46875 16.001 4.125 15.6885 3.96875 15.501C3.28125 14.7197 2.75 13.8135 2.40625 12.8135C2.34375 12.5635 2.25 12.126 2.5 11.6885C2.5625 11.5947 2.65625 11.4697 2.75 11.376L3.65625 10.5322C3.78125 10.4072 3.78125 10.0635 3.65625 9.93848L2.75 9.06348C2.65625 8.96973 2.5625 8.87598 2.5 8.75098C2.25 8.34473 2.34375 7.90723 2.40625 7.65723C2.75 6.65723 3.28125 5.75098 3.96875 4.96973C4.125 4.78223 4.46875 4.46973 4.96875 4.46973C5.09375 4.46973 5.25 4.50098 5.375 4.53223L6.5625 4.87598C6.71875 4.93848 7.03125 4.75098 7.0625 4.59473L7.375 3.37598C7.40625 3.25098 7.4375 3.12598 7.5 3.00098C7.75 2.56348 8.1875 2.43848 8.4375 2.37598C8.9375 2.28223 9.46875 2.21973 10 2.21973ZM8.8125 3.84473L8.53125 4.93848C8.28125 5.93848 7.125 6.62598 6.125 6.34473L5.03125 6.00098C4.53125 6.62598 4.125 7.31348 3.84375 8.06348L4.6875 8.84473C5.4375 9.56348 5.4375 10.9072 4.6875 11.626L3.84375 12.4072C4.125 13.1572 4.53125 13.8447 5.03125 14.4697L6.125 14.126C7.125 13.8447 8.28125 14.5322 8.53125 15.5322L8.8125 16.626C9.5625 16.7822 10.4062 16.7822 11.1875 16.626L11.4375 15.5322C11.6875 14.5322 12.8438 13.8447 13.8438 14.126L14.9375 14.4697C15.4375 13.8447 15.8438 13.1572 16.125 12.4072L15.3125 11.626C14.5625 10.9072 14.5625 9.56348 15.3125 8.84473L16.125 8.06348C15.8438 7.31348 15.4375 6.62598 14.9375 6.00098L13.8438 6.34473C12.875 6.62598 11.6875 5.93848 11.4375 4.93848L11.1875 3.84473C10.4062 3.68848 9.5625 3.68848 8.8125 3.84473ZM8.5 10.2197C8.5 10.7822 8.78125 11.251 9.25 11.5322C9.6875 11.8135 10.2812 11.8135 10.75 11.5322C11.1875 11.251 11.5 10.7822 11.5 10.2197C11.5 9.68848 11.1875 9.21973 10.75 8.93848C10.2812 8.65723 9.6875 8.65723 9.25 8.93848C8.78125 9.21973 8.5 9.68848 8.5 10.2197ZM10 13.2197C8.90625 13.2197 7.9375 12.6572 7.375 11.7197C6.84375 10.8135 6.84375 9.65723 7.375 8.71973C7.9375 7.81348 8.90625 7.21973 10 7.21973C11.0625 7.21973 12.0312 7.81348 12.5938 8.71973C13.125 9.65723 13.125 10.8135 12.5938 11.7197C12.0312 12.6572 11.0625 13.2197 10 13.2197Z" fill="white"/>
</svg>
