<svg width="20" height="21" viewBox="0 0 20 21" fill="none" xmlns="http://www.w3.org/2000/svg">
<path d="M7.75 2.96973V4.21973H12.25V2.96973C12.25 2.56348 12.5625 2.21973 13 2.21973C13.4062 2.21973 13.75 2.56348 13.75 2.96973V4.21973H15C16.0938 4.21973 17 5.12598 17 6.21973V6.71973V8.21973V16.2197C17 17.3447 16.0938 18.2197 15 18.2197H5C3.875 18.2197 3 17.3447 3 16.2197V8.21973V6.71973V6.21973C3 5.12598 3.875 4.21973 5 4.21973H6.25V2.96973C6.25 2.56348 6.5625 2.21973 7 2.21973C7.40625 2.21973 7.75 2.56348 7.75 2.96973ZM4.5 8.21973V16.2197C4.5 16.501 4.71875 16.7197 5 16.7197H15C15.25 16.7197 15.5 16.501 15.5 16.2197V8.21973H4.5Z" fill="white"/>
</svg>
