<svg width="20" height="21" viewBox="0 0 20 21" fill="none" xmlns="http://www.w3.org/2000/svg">
<path d="M4.5 7.21973C3.59375 7.21973 2.78125 6.75098 2.3125 5.96973C1.875 5.21973 1.875 4.25098 2.3125 3.46973C2.78125 2.71973 3.59375 2.21973 4.5 2.21973C5.375 2.21973 6.1875 2.71973 6.65625 3.46973C7.09375 4.25098 7.09375 5.21973 6.65625 5.96973C6.1875 6.75098 5.375 7.21973 4.5 7.21973ZM16 7.21973C15.0938 7.21973 14.2812 6.75098 13.8125 5.96973C13.375 5.21973 13.375 4.25098 13.8125 3.46973C14.2812 2.71973 15.0938 2.21973 16 2.21973C16.875 2.21973 17.6875 2.71973 18.1562 3.46973C18.5938 4.25098 18.5938 5.21973 18.1562 5.96973C17.6875 6.75098 16.875 7.21973 16 7.21973ZM0 11.5635C0 9.71973 1.46875 8.21973 3.3125 8.21973H4.65625C5.15625 8.21973 5.625 8.34473 6.03125 8.53223C6 8.75098 6 9.00098 6 9.21973C6 10.4385 6.5 11.501 7.34375 12.2197H7.3125H0.65625C0.28125 12.2197 0 11.9385 0 11.5635ZM12.6562 12.2197H12.625C13.4688 11.501 13.9688 10.4385 13.9688 9.21973C13.9688 9.00098 13.9688 8.75098 13.9375 8.53223C14.3438 8.34473 14.8125 8.21973 15.3125 8.21973H16.6562C18.5 8.21973 20 9.71973 19.9688 11.5635C19.9688 11.9385 19.6875 12.2197 19.3125 12.2197H12.6562ZM10 7.71973C9.4375 7.71973 8.96875 8.03223 8.6875 8.46973C8.40625 8.93848 8.40625 9.53223 8.6875 9.96973C8.96875 10.4385 9.4375 10.7197 10 10.7197C10.5312 10.7197 11 10.4385 11.2812 9.96973C11.5625 9.53223 11.5625 8.93848 11.2812 8.46973C11 8.03223 10.5312 7.71973 10 7.71973ZM10 12.2197C8.90625 12.2197 7.9375 11.6572 7.375 10.7197C6.84375 9.81348 6.84375 8.65723 7.375 7.71973C7.9375 6.81348 8.90625 6.21973 10 6.21973C11.0625 6.21973 12.0312 6.81348 12.5938 7.71973C13.125 8.65723 13.125 9.81348 12.5938 10.7197C12.0312 11.6572 11.0625 12.2197 10 12.2197ZM8.15625 14.7197C6.90625 14.7197 5.875 15.5947 5.5625 16.7197H14.4062C14.0938 15.5947 13.0625 14.7197 11.8125 14.7197H8.15625ZM8.15625 13.2197H11.8125C14.125 13.2197 16 15.0947 16 17.4072C16 17.876 15.625 18.2197 15.1562 18.2197H4.8125C4.34375 18.2197 4 17.8447 4 17.4072C4 15.0947 5.84375 13.2197 8.15625 13.2197Z" fill="white"/>
</svg>
