<svg width="18" height="16" viewBox="0 0 18 16" fill="none" xmlns="http://www.w3.org/2000/svg">
<path d="M13.6875 12.5C14.8125 11.3438 15.5 9.75 15.5 8C15.5 4.4375 12.5625 1.5 9 1.5C5.40625 1.5 2.5 4.4375 2.5 8C2.5 9.75 3.15625 11.3438 4.28125 12.5C4.875 11.0312 6.3125 10 8 10H10C11.6562 10 13.0938 11.0312 13.6875 12.5ZM12.4375 13.5312C12.2188 12.375 11.1875 11.5 10 11.5H8C6.78125 11.5 5.75 12.375 5.53125 13.5312C6.53125 14.1562 7.71875 14.5 9 14.5C10.25 14.5 11.4375 14.1562 12.4375 13.5312ZM9 16C6.125 16 3.5 14.5 2.0625 12C0.625 9.53125 0.625 6.5 2.0625 4C3.5 1.53125 6.125 0 9 0C11.8438 0 14.4688 1.53125 15.9062 4C17.3438 6.5 17.3438 9.53125 15.9062 12C14.4688 14.5 11.8438 16 9 16ZM9 7.5C9.4375 7.5 9.84375 7.28125 10.0625 6.875C10.2812 6.5 10.2812 6.03125 10.0625 5.625C9.84375 5.25 9.4375 5 9 5C8.53125 5 8.125 5.25 7.90625 5.625C7.6875 6.03125 7.6875 6.5 7.90625 6.875C8.125 7.28125 8.53125 7.5 9 7.5ZM6.25 6.25C6.25 5.28125 6.75 4.375 7.625 3.875C8.46875 3.40625 9.5 3.40625 10.375 3.875C11.2188 4.375 11.75 5.28125 11.75 6.25C11.75 7.25 11.2188 8.15625 10.375 8.65625C9.5 9.125 8.46875 9.125 7.625 8.65625C6.75 8.15625 6.25 7.25 6.25 6.25Z" fill="white"/>
</svg>
