<svg width="17" height="14" viewBox="0 0 17 14" fill="none" xmlns="http://www.w3.org/2000/svg">
<path d="M6.34375 1.58594L7.28125 3.83594C7.44531 4.21094 7.35156 4.65625 7.02344 4.91406L5.875 5.875C6.15625 6.46094 6.50781 7.02344 6.92969 7.51562L15.0859 1.14062C15.3203 0.929688 15.6719 0.976562 15.8594 1.23438C16.0703 1.46875 16.0234 1.82031 15.7656 2.00781L1.89062 12.8828C1.65625 13.0938 1.30469 13.0469 1.11719 12.7891C0.90625 12.5547 0.953125 12.2031 1.21094 12.0156L4.84375 9.15625C3.36719 7.32812 2.5 5.03125 2.5 2.5C2.5 2.07812 2.78125 1.72656 3.17969 1.60938L5.24219 1.04688C5.6875 0.929688 6.17969 1.14062 6.34375 1.58594ZM8.61719 9.0625C8.94531 9.27344 9.27344 9.46094 9.625 9.625L10.5859 8.47656C10.8438 8.14844 11.2891 8.05469 11.6641 8.21875L13.9141 9.15625C14.3594 9.32031 14.5703 9.8125 14.4531 10.2578L13.8906 12.3203C13.7734 12.7188 13.4219 13 13 13C10.5391 13 8.26562 12.1562 6.48438 10.75L8.61719 9.0625Z" fill="black" fill-opacity="0.25"/>
</svg>
