<svg width="13" height="13" viewBox="0 0 13 13" fill="none" xmlns="http://www.w3.org/2000/svg">
<path d="M4.34375 1.58594L5.28125 3.83594C5.44531 4.21094 5.35156 4.65625 5.02344 4.91406L3.875 5.875C4.64844 7.51562 5.98438 8.85156 7.625 9.625L8.58594 8.47656C8.84375 8.14844 9.28906 8.05469 9.66406 8.21875L11.9141 9.15625C12.3594 9.32031 12.5703 9.8125 12.4531 10.2578L11.8906 12.3203C11.7734 12.7188 11.4219 13 11 13C5.1875 13 0.5 8.3125 0.5 2.5C0.5 2.07812 0.78125 1.72656 1.17969 1.60938L3.24219 1.04688C3.6875 0.929688 4.17969 1.14062 4.34375 1.58594Z" fill="#1677FF"/>
</svg>
