<svg width="16" height="18" viewBox="0 0 16 18" fill="none" xmlns="http://www.w3.org/2000/svg">
<path d="M12.0312 14.125L2.875 4.96875C2 6.09375 1.5 7.5 1.5 9C1.5 12.5938 4.40625 15.5 8 15.5C9.5 15.5 10.9062 15 12.0312 14.125ZM13.0938 13.0625C13.9688 11.9375 14.5 10.5312 14.5 9C14.5 5.4375 11.5625 2.5 8 2.5C6.46875 2.5 5.0625 3.03125 3.9375 3.90625L13.0938 13.0625ZM0 9C0 6.15625 1.5 3.53125 4 2.09375C6.46875 0.65625 9.5 0.65625 12 2.09375C14.4688 3.53125 16 6.15625 16 9C16 11.875 14.4688 14.5 12 15.9375C9.5 17.375 6.46875 17.375 4 15.9375C1.5 14.5 0 11.875 0 9Z" fill="white"/>
</svg>
