<svg width="14" height="16" viewBox="0 0 14 16" fill="none" xmlns="http://www.w3.org/2000/svg">
<path d="M2 1H12C13.0938 1 14 1.90625 14 3V13C14 14.125 13.0938 15 12 15H2C0.875 15 0 14.125 0 13V3C0 1.90625 0.875 1 2 1ZM4.28125 5.1875V5.21875C4.15625 5.59375 4.34375 6.03125 4.75 6.1875C5.125 6.3125 5.5625 6.125 5.6875 5.71875L5.71875 5.6875C5.75 5.59375 5.84375 5.53125 5.9375 5.53125H7.75C8.03125 5.53125 8.25 5.71875 8.25 6C8.25 6.15625 8.15625 6.3125 8 6.40625L6.625 7.1875C6.375 7.3125 6.25 7.5625 6.25 7.84375V8.25C6.25 8.6875 6.5625 9 7 9C7.40625 9 7.71875 8.6875 7.75 8.28125L8.75 7.6875C9.34375 7.34375 9.75 6.6875 9.75 6C9.75 4.90625 8.84375 4 7.75 4H5.9375C5.1875 4 4.53125 4.46875 4.28125 5.1875ZM6 11C6 11.5625 6.4375 12 7 12C7.53125 12 8 11.5625 8 11C8 10.4688 7.53125 10 7 10C6.4375 10 6 10.4688 6 11Z" fill="black" fill-opacity="0.88"/>
</svg>
