<svg width="14" height="16" viewBox="0 0 14 16" fill="none" xmlns="http://www.w3.org/2000/svg">
<path d="M5 0H9C10.0938 0 11 0.90625 11 2V8H3V2C3 0.90625 3.875 0 5 0ZM2 5V7C2 7.5625 1.53125 8 1 8C0.4375 8 0 7.5625 0 7V5C0 4.46875 0.4375 4 1 4C1.53125 4 2 4.46875 2 5ZM14 5V7C14 7.5625 13.5312 8 13 8C12.4375 8 12 7.5625 12 7V5C12 4.46875 12.4375 4 13 4C13.5312 4 14 4.46875 14 5ZM1.59375 9.5625C1.75 9.21875 2.09375 9 2.5 9H11.5C11.875 9 12.2188 9.21875 12.375 9.5625L12.875 10.5625C13.0312 10.875 13.0312 11.25 12.8438 11.5312C12.6562 11.8438 12.3438 12 12 12H8V14H9C9.53125 14 10 14.4688 10 15C10 15.5625 9.53125 16 9 16H7H5C4.4375 16 4 15.5625 4 15C4 14.4688 4.4375 14 5 14H6V12H2C1.625 12 1.3125 11.8438 1.125 11.5312C0.96875 11.25 0.9375 10.875 1.09375 10.5625L1.59375 9.5625Z" fill="white"/>
</svg>
